<svg width="50" height="51" viewBox="0 0 71 72" fill="none" xmlns="http://www.w3.org/2000/svg">
<g clip-path="url(#clip0_418_483)">
<path d="M35.4062 71.1534C54.8225 71.1534 70.5625 55.4134 70.5625 35.9972C70.5625 16.5809 54.8225 0.840912 35.4062 0.840912C15.99 0.840912 0.25 16.5809 0.25 35.9972C0.25 55.4134 15.99 71.1534 35.4062 71.1534Z" fill="#F0F0F0"/>
<path d="M47.6345 35.9971C47.6345 39.0542 42.1597 46.6968 35.4063 46.6968C28.6529 46.6968 23.1781 39.0542 23.1781 35.9971C23.1781 29.2435 28.6529 23.7689 35.4063 23.7689C42.1597 23.7689 47.6345 29.2435 47.6345 35.9971Z" fill="#D80027"/>
<path d="M47.6345 35.9971C47.6345 42.7507 42.1597 48.2253 35.4063 48.2253C28.6529 48.2253 23.1781 42.7507 23.1781 35.9971" fill="#0052B4"/>
<path d="M48.3667 46.806L51.6087 43.564L53.77 45.7254L50.5281 48.9674L48.3667 46.806Z" fill="black"/>
<path d="M42.9617 52.2096L46.2037 48.9676L48.365 51.129L45.123 54.371L42.9617 52.2096Z" fill="black"/>
<path d="M54.8511 53.2898L58.0931 50.0478L60.2544 52.2092L57.0124 55.4512L54.8511 53.2898Z" fill="black"/>
<path d="M49.4465 58.6941L52.6885 55.4521L54.8499 57.6135L51.6079 60.8554L49.4465 58.6941Z" fill="black"/>
<path d="M51.6086 50.0482L54.8506 46.8062L57.012 48.9675L53.77 52.2095L51.6086 50.0482Z" fill="black"/>
<path d="M46.2053 55.4516L49.4473 52.2096L51.6087 54.371L48.3667 57.613L46.2053 55.4516Z" fill="black"/>
<path d="M54.8655 25.1942L46.2201 16.5489L48.3815 14.3875L57.0268 23.0329L54.8655 25.1942Z" fill="black"/>
<path d="M46.2185 23.0337L42.9765 19.7917L45.1378 17.6304L48.3798 20.8724L46.2185 23.0337Z" fill="black"/>
<path d="M51.6218 28.4384L48.3798 25.1964L50.5411 23.0352L53.7831 26.2772L51.6218 28.4384Z" fill="black"/>
<path d="M52.7019 16.5486L49.4599 13.3066L51.6213 11.1452L54.8633 14.3872L52.7019 16.5486Z" fill="black"/>
<path d="M58.1082 21.9539L54.8662 18.7119L57.0275 16.5506L60.2695 19.7926L58.1082 21.9539Z" fill="black"/>
<path d="M12.7133 50.0421L21.3586 58.6874L19.1972 60.8487L10.5519 52.2034L12.7133 50.0421Z" fill="black"/>
<path d="M21.3582 52.2017L24.6001 55.4436L22.4389 57.6049L19.1969 54.3629L21.3582 52.2017Z" fill="black"/>
<path d="M15.9542 46.7994L19.1962 50.0414L17.0349 52.2027L13.7929 48.9607L15.9542 46.7994Z" fill="black"/>
<path d="M19.1967 43.5565L27.842 52.2018L25.6806 54.3631L17.0353 45.7178L19.1967 43.5565Z" fill="black"/>
<path d="M21.3577 13.2999L12.7123 21.9452L10.551 19.7838L19.1963 11.1385L21.3577 13.2999Z" fill="black"/>
<path d="M24.5996 16.5415L15.9543 25.1869L13.7929 23.0255L22.4383 14.3802L24.5996 16.5415Z" fill="black"/>
<path d="M27.8447 19.7855L19.1994 28.4308L17.0381 26.2696L25.6835 17.6242L27.8447 19.7855Z" fill="black"/>
</g>
<defs>
<clipPath id="clip0_418_483">
<rect width="70.3125" height="70.3125" fill="white" transform="translate(0.25 0.840912)"/>
</clipPath>
</defs>
</svg>
