<svg width="50" height="51" viewBox="0 0 71 72" fill="none" xmlns="http://www.w3.org/2000/svg">
<g clip-path="url(#clip0_418_483)">
<path d="M0.25 35.9972C0.25 40.2975 1.02357 44.4168 2.43669 48.2254L35.4062 49.754L68.3758 48.2255C69.7891 44.4168 70.5625 40.2975 70.5625 35.9972C70.5625 31.6968 69.7891 27.5775 68.3758 23.769L35.4062 22.2404L2.43669 23.7688C1.02357 27.5775 0.25 31.6968 0.25 35.9972H0.25Z" fill="#FFDA44"/>
<path d="M35.4062 0.840912C20.2903 0.840912 7.40398 10.3814 2.43665 23.769H68.3759C63.4084 10.3814 50.5222 0.840912 35.4062 0.840912V0.840912Z" fill="#D80027"/>
<path d="M68.3758 48.2253H2.43665C7.40398 61.6127 20.2903 71.1534 35.4062 71.1534C50.5222 71.1534 63.4084 61.6127 68.3758 48.2253Z" fill="#496E2D"/>
<path d="M35.4059 23.7689L38.4409 33.11H48.2637L40.3175 38.8838L43.3524 48.2253L35.4059 42.452L27.4593 48.2253L30.4949 38.8838L22.5486 33.11H32.3709L35.4059 23.7689Z" fill="black"/>
</g>
<defs>
<clipPath id="clip0_418_483">
<rect width="70.3125" height="70.3125" fill="white" transform="translate(0.25 0.840912)"/>
</clipPath>
</defs>
</svg>
